<mxfile host="Electron" modified="2024-06-05T09:19:30.525Z" agent="Mozilla/5.0 (Windows NT 10.0; Win64; x64) AppleWebKit/537.36 (KHTML, like Gecko) draw.io/24.4.13 Chrome/124.0.6367.207 Electron/30.0.6 Safari/537.36" etag="-8ctYn8O2SQla40Jzki9" version="24.4.13" type="device">
  <diagram name="Страница — 1" id="tTTT7lDbj0AzXVJ5Z_Ju">
    <mxGraphModel dx="2474" dy="1115" grid="1" gridSize="10" guides="1" tooltips="1" connect="1" arrows="1" fold="1" page="1" pageScale="1" pageWidth="827" pageHeight="1169" math="0" shadow="0">
      <root>
        <mxCell id="0" />
        <mxCell id="1" parent="0" />
        <mxCell id="YhXAwPTHWb4so9bpkjYg-1" style="edgeStyle=orthogonalEdgeStyle;rounded=0;orthogonalLoop=1;jettySize=auto;html=1;exitX=0;exitY=1;exitDx=0;exitDy=0;entryX=0.5;entryY=0;entryDx=0;entryDy=0;" parent="1" source="eu__VUVs-O8cIbxZYUX1-1" target="eu__VUVs-O8cIbxZYUX1-5" edge="1">
          <mxGeometry relative="1" as="geometry" />
        </mxCell>
        <mxCell id="eu__VUVs-O8cIbxZYUX1-1" value="&lt;font face=&quot;Times New Roman&quot;&gt;&lt;font style=&quot;font-size: 14px;&quot;&gt;&lt;br&gt;Исток&lt;br&gt;(Начало&lt;br&gt;рассмотрения &lt;br&gt;процесса)&lt;/font&gt;&lt;br&gt;&lt;/font&gt;" style="ellipse;whiteSpace=wrap;html=1;aspect=fixed;" parent="1" vertex="1">
          <mxGeometry x="520" y="30" width="130" height="130" as="geometry" />
        </mxCell>
        <mxCell id="eu__VUVs-O8cIbxZYUX1-2" value="" style="triangle;whiteSpace=wrap;html=1;direction=south;strokeColor=default;gradientColor=none;fillColor=#000000;" parent="1" vertex="1">
          <mxGeometry x="570" y="40" width="29.33" height="20" as="geometry" />
        </mxCell>
        <mxCell id="YhXAwPTHWb4so9bpkjYg-6" style="edgeStyle=orthogonalEdgeStyle;rounded=0;orthogonalLoop=1;jettySize=auto;html=1;exitX=1;exitY=1;exitDx=0;exitDy=0;" parent="1" source="eu__VUVs-O8cIbxZYUX1-5" edge="1">
          <mxGeometry relative="1" as="geometry">
            <mxPoint x="540" y="390" as="targetPoint" />
          </mxGeometry>
        </mxCell>
        <mxCell id="eu__VUVs-O8cIbxZYUX1-5" value="&lt;font face=&quot;Times New Roman&quot;&gt;&lt;span style=&quot;font-size: 14px;&quot;&gt;Запустили приложение&lt;/span&gt;&lt;/font&gt;" style="ellipse;whiteSpace=wrap;html=1;aspect=fixed;" parent="1" vertex="1">
          <mxGeometry x="429.65999999999997" y="200" width="130" height="130" as="geometry" />
        </mxCell>
        <mxCell id="wRYcbDbW16RMZCIpdBNf-7" style="edgeStyle=orthogonalEdgeStyle;rounded=0;orthogonalLoop=1;jettySize=auto;html=1;exitX=0;exitY=1;exitDx=0;exitDy=0;" parent="1" source="eu__VUVs-O8cIbxZYUX1-7" edge="1">
          <mxGeometry relative="1" as="geometry">
            <mxPoint x="628.9069767441861" y="390" as="targetPoint" />
          </mxGeometry>
        </mxCell>
        <mxCell id="eu__VUVs-O8cIbxZYUX1-7" value="&lt;font face=&quot;Times New Roman&quot; style=&quot;font-size: 14px;&quot;&gt;Открыто окно программы&lt;/font&gt;" style="ellipse;whiteSpace=wrap;html=1;aspect=fixed;" parent="1" vertex="1">
          <mxGeometry x="610" y="200" width="130" height="130" as="geometry" />
        </mxCell>
        <mxCell id="eu__VUVs-O8cIbxZYUX1-57" value="" style="endArrow=none;html=1;rounded=0;strokeWidth=4;" parent="1" edge="1">
          <mxGeometry width="50" height="50" relative="1" as="geometry">
            <mxPoint x="529.66" y="390" as="sourcePoint" />
            <mxPoint x="639.66" y="390" as="targetPoint" />
            <Array as="points" />
          </mxGeometry>
        </mxCell>
        <mxCell id="eu__VUVs-O8cIbxZYUX1-61" style="edgeStyle=orthogonalEdgeStyle;rounded=0;orthogonalLoop=1;jettySize=auto;html=1;" parent="1" edge="1">
          <mxGeometry relative="1" as="geometry">
            <mxPoint x="584" y="440" as="targetPoint" />
            <mxPoint x="584.1600000000001" y="440" as="sourcePoint" />
            <Array as="points">
              <mxPoint x="584" y="390" />
              <mxPoint x="584" y="390" />
            </Array>
          </mxGeometry>
        </mxCell>
        <mxCell id="wRYcbDbW16RMZCIpdBNf-15" style="edgeStyle=orthogonalEdgeStyle;rounded=0;orthogonalLoop=1;jettySize=auto;html=1;exitX=1;exitY=1;exitDx=0;exitDy=0;" parent="1" source="eu__VUVs-O8cIbxZYUX1-60" edge="1">
          <mxGeometry relative="1" as="geometry">
            <mxPoint x="630.1428571428571" y="600.0000000000001" as="targetPoint" />
          </mxGeometry>
        </mxCell>
        <mxCell id="N7RACuZjBRk8Ios8j_cp-13" style="edgeStyle=orthogonalEdgeStyle;rounded=0;orthogonalLoop=1;jettySize=auto;html=1;exitX=0.5;exitY=1;exitDx=0;exitDy=0;" parent="1" source="eu__VUVs-O8cIbxZYUX1-60" edge="1">
          <mxGeometry relative="1" as="geometry">
            <mxPoint x="530.0000000000002" y="600" as="targetPoint" />
          </mxGeometry>
        </mxCell>
        <mxCell id="N7RACuZjBRk8Ios8j_cp-28" style="edgeStyle=orthogonalEdgeStyle;rounded=0;orthogonalLoop=1;jettySize=auto;html=1;exitX=0;exitY=1;exitDx=0;exitDy=0;" parent="1" source="eu__VUVs-O8cIbxZYUX1-60" edge="1">
          <mxGeometry relative="1" as="geometry">
            <mxPoint x="190" y="600" as="targetPoint" />
            <Array as="points">
              <mxPoint x="538" y="580" />
              <mxPoint x="191" y="580" />
            </Array>
          </mxGeometry>
        </mxCell>
        <mxCell id="eu__VUVs-O8cIbxZYUX1-60" value="&lt;font face=&quot;Times New Roman&quot;&gt;&lt;span style=&quot;font-size: 14px;&quot;&gt;Выбираем действие&lt;/span&gt;&lt;/font&gt;" style="ellipse;whiteSpace=wrap;html=1;aspect=fixed;" parent="1" vertex="1">
          <mxGeometry x="519.3299999999998" y="440" width="130" height="130" as="geometry" />
        </mxCell>
        <mxCell id="8ZdpIB1KfxX4hMsNmirL-2" value="" style="ellipse;whiteSpace=wrap;html=1;aspect=fixed;fillColor=#000000;" parent="1" vertex="1">
          <mxGeometry x="642.5" y="3190" width="30" height="30" as="geometry" />
        </mxCell>
        <mxCell id="8ZdpIB1KfxX4hMsNmirL-3" value="" style="ellipse;whiteSpace=wrap;html=1;aspect=fixed;fillColor=#000000;" parent="1" vertex="1">
          <mxGeometry x="672.5" y="3190" width="30" height="30" as="geometry" />
        </mxCell>
        <mxCell id="8ZdpIB1KfxX4hMsNmirL-4" value="" style="triangle;whiteSpace=wrap;html=1;direction=west;strokeColor=default;gradientColor=none;fillColor=#000000;rotation=90;" parent="1" vertex="1">
          <mxGeometry x="377.17499999999995" y="3237.005" width="20" height="29.33" as="geometry" />
        </mxCell>
        <mxCell id="8ZdpIB1KfxX4hMsNmirL-5" value="" style="triangle;whiteSpace=wrap;html=1;direction=south;strokeColor=default;gradientColor=none;fillColor=#000000;" parent="1" vertex="1">
          <mxGeometry x="372.51" y="3200" width="29.33" height="20" as="geometry" />
        </mxCell>
        <mxCell id="8ZdpIB1KfxX4hMsNmirL-6" value="" style="rounded=0;whiteSpace=wrap;html=1;fillColor=#000000;" parent="1" vertex="1">
          <mxGeometry x="652.5" y="3247" width="30" height="30" as="geometry" />
        </mxCell>
        <mxCell id="8ZdpIB1KfxX4hMsNmirL-29" value="&lt;font face=&quot;Times New Roman&quot;&gt;Начало процесса&lt;/font&gt;" style="text;html=1;align=center;verticalAlign=middle;resizable=0;points=[];autosize=1;strokeColor=none;fillColor=none;" parent="1" vertex="1">
          <mxGeometry x="407.5" y="3195" width="110" height="30" as="geometry" />
        </mxCell>
        <mxCell id="8ZdpIB1KfxX4hMsNmirL-30" value="&lt;font face=&quot;Times New Roman&quot;&gt;Конец процесса&lt;/font&gt;" style="text;html=1;align=center;verticalAlign=middle;resizable=0;points=[];autosize=1;strokeColor=none;fillColor=none;" parent="1" vertex="1">
          <mxGeometry x="412.5" y="3237" width="100" height="30" as="geometry" />
        </mxCell>
        <mxCell id="8ZdpIB1KfxX4hMsNmirL-31" value="" style="ellipse;whiteSpace=wrap;html=1;aspect=fixed;fillColor=#000000;" parent="1" vertex="1">
          <mxGeometry x="372.51" y="3287" width="30" height="30" as="geometry" />
        </mxCell>
        <mxCell id="8ZdpIB1KfxX4hMsNmirL-33" value="&lt;font face=&quot;Times New Roman&quot;&gt;Устойчивое состояние&lt;/font&gt;" style="text;html=1;align=center;verticalAlign=middle;resizable=0;points=[];autosize=1;strokeColor=none;fillColor=none;" parent="1" vertex="1">
          <mxGeometry x="402.51" y="3287" width="140" height="30" as="geometry" />
        </mxCell>
        <mxCell id="8ZdpIB1KfxX4hMsNmirL-34" value="&lt;font face=&quot;Times New Roman&quot;&gt;Измененное состояние&lt;/font&gt;" style="text;html=1;align=center;verticalAlign=middle;resizable=0;points=[];autosize=1;strokeColor=none;fillColor=none;" parent="1" vertex="1">
          <mxGeometry x="710.02" y="3190" width="140" height="30" as="geometry" />
        </mxCell>
        <mxCell id="8ZdpIB1KfxX4hMsNmirL-35" value="&lt;font face=&quot;Times New Roman&quot;&gt;Метод / процесс / действие&lt;/font&gt;" style="text;html=1;align=center;verticalAlign=middle;resizable=0;points=[];autosize=1;strokeColor=none;fillColor=none;" parent="1" vertex="1">
          <mxGeometry x="707.52" y="3247" width="160" height="30" as="geometry" />
        </mxCell>
        <mxCell id="8ZdpIB1KfxX4hMsNmirL-36" value="" style="endArrow=classic;html=1;rounded=0;" parent="1" edge="1">
          <mxGeometry width="50" height="50" relative="1" as="geometry">
            <mxPoint x="382.5" y="3349.57" as="sourcePoint" />
            <mxPoint x="412.5" y="3349.57" as="targetPoint" />
          </mxGeometry>
        </mxCell>
        <mxCell id="8ZdpIB1KfxX4hMsNmirL-37" value="&lt;font face=&quot;Times New Roman&quot;&gt;Направление сети Петри&lt;/font&gt;" style="text;html=1;align=center;verticalAlign=middle;resizable=0;points=[];autosize=1;strokeColor=none;fillColor=none;" parent="1" vertex="1">
          <mxGeometry x="417.5" y="3335" width="150" height="30" as="geometry" />
        </mxCell>
        <mxCell id="8ZdpIB1KfxX4hMsNmirL-39" value="" style="ellipse;whiteSpace=wrap;html=1;aspect=fixed;" parent="1" vertex="1">
          <mxGeometry x="630.02" y="3297" width="80" height="80" as="geometry" />
        </mxCell>
        <mxCell id="8ZdpIB1KfxX4hMsNmirL-40" value="&lt;font face=&quot;Times New Roman&quot;&gt;Событие&lt;/font&gt;" style="text;html=1;align=center;verticalAlign=middle;resizable=0;points=[];autosize=1;strokeColor=none;fillColor=none;" parent="1" vertex="1">
          <mxGeometry x="727.52" y="3322" width="70" height="30" as="geometry" />
        </mxCell>
        <mxCell id="8ZdpIB1KfxX4hMsNmirL-41" value="&lt;font color=&quot;#ffffff&quot; face=&quot;Times New Roman&quot; style=&quot;font-size: 27px;&quot;&gt;n&lt;/font&gt;" style="ellipse;whiteSpace=wrap;html=1;aspect=fixed;fillColor=#66B2FF;" parent="1" vertex="1">
          <mxGeometry x="362.5" y="3387" width="80" height="80" as="geometry" />
        </mxCell>
        <mxCell id="8ZdpIB1KfxX4hMsNmirL-42" value="&lt;font face=&quot;Times New Roman&quot;&gt;Ссылка&lt;/font&gt;" style="text;html=1;align=center;verticalAlign=middle;resizable=0;points=[];autosize=1;strokeColor=none;fillColor=none;" parent="1" vertex="1">
          <mxGeometry x="452.5" y="3412" width="60" height="30" as="geometry" />
        </mxCell>
        <mxCell id="YhXAwPTHWb4so9bpkjYg-3" value="" style="ellipse;whiteSpace=wrap;html=1;aspect=fixed;fillColor=#000000;" parent="1" vertex="1">
          <mxGeometry x="479.66" y="210" width="30" height="30" as="geometry" />
        </mxCell>
        <mxCell id="YpSg0bnbWlljTMXTQoFI-1" value="" style="ellipse;whiteSpace=wrap;html=1;aspect=fixed;fillColor=#000000;" parent="1" vertex="1">
          <mxGeometry x="570.0200000000001" y="450" width="30" height="30" as="geometry" />
        </mxCell>
        <mxCell id="N7RACuZjBRk8Ios8j_cp-34" style="edgeStyle=orthogonalEdgeStyle;rounded=0;orthogonalLoop=1;jettySize=auto;html=1;exitX=1;exitY=0.5;exitDx=0;exitDy=0;" parent="1" source="wRYcbDbW16RMZCIpdBNf-2" edge="1">
          <mxGeometry relative="1" as="geometry">
            <mxPoint x="470" y="600" as="targetPoint" />
            <Array as="points">
              <mxPoint x="312" y="570" />
              <mxPoint x="471" y="570" />
            </Array>
          </mxGeometry>
        </mxCell>
        <mxCell id="wRYcbDbW16RMZCIpdBNf-2" value="&lt;font face=&quot;Times New Roman&quot;&gt;&lt;span style=&quot;font-size: 14px;&quot;&gt;Создать титульник&lt;/span&gt;&lt;/font&gt;" style="ellipse;whiteSpace=wrap;html=1;aspect=fixed;" parent="1" vertex="1">
          <mxGeometry x="181.62999999999988" y="440" width="130" height="130" as="geometry" />
        </mxCell>
        <mxCell id="wRYcbDbW16RMZCIpdBNf-14" style="edgeStyle=orthogonalEdgeStyle;rounded=0;orthogonalLoop=1;jettySize=auto;html=1;exitX=0;exitY=1;exitDx=0;exitDy=0;" parent="1" source="wRYcbDbW16RMZCIpdBNf-4" edge="1">
          <mxGeometry relative="1" as="geometry">
            <mxPoint x="715.8571428571429" y="600.0000000000001" as="targetPoint" />
          </mxGeometry>
        </mxCell>
        <mxCell id="wRYcbDbW16RMZCIpdBNf-4" value="&lt;font face=&quot;Times New Roman&quot;&gt;&lt;span style=&quot;font-size: 14px;&quot;&gt;Перейти к созданию договора&lt;/span&gt;&lt;/font&gt;" style="ellipse;whiteSpace=wrap;html=1;aspect=fixed;" parent="1" vertex="1">
          <mxGeometry x="696.9999999999999" y="440" width="130" height="130" as="geometry" />
        </mxCell>
        <mxCell id="wRYcbDbW16RMZCIpdBNf-103" style="edgeStyle=orthogonalEdgeStyle;rounded=0;orthogonalLoop=1;jettySize=auto;html=1;exitX=0.5;exitY=1;exitDx=0;exitDy=0;" parent="1" source="wRYcbDbW16RMZCIpdBNf-102" edge="1">
          <mxGeometry relative="1" as="geometry">
            <mxPoint x="2720" y="480" as="targetPoint" />
          </mxGeometry>
        </mxCell>
        <mxCell id="wRYcbDbW16RMZCIpdBNf-102" value="&lt;font size=&quot;3&quot; face=&quot;Times New Roman&quot;&gt;Начало&amp;nbsp;&lt;/font&gt;&lt;div&gt;&lt;font size=&quot;3&quot; face=&quot;Times New Roman&quot;&gt;(WriteBtn_Click)&lt;/font&gt;&lt;/div&gt;" style="rounded=1;whiteSpace=wrap;html=1;" parent="1" vertex="1">
          <mxGeometry x="2630" y="330" width="180" height="90" as="geometry" />
        </mxCell>
        <mxCell id="wRYcbDbW16RMZCIpdBNf-106" style="edgeStyle=orthogonalEdgeStyle;rounded=0;orthogonalLoop=1;jettySize=auto;html=1;exitX=0.5;exitY=1;exitDx=0;exitDy=0;entryX=0.5;entryY=0;entryDx=0;entryDy=0;" parent="1" source="wRYcbDbW16RMZCIpdBNf-104" target="wRYcbDbW16RMZCIpdBNf-105" edge="1">
          <mxGeometry relative="1" as="geometry" />
        </mxCell>
        <mxCell id="wRYcbDbW16RMZCIpdBNf-104" value="&lt;font size=&quot;3&quot; face=&quot;Times New Roman&quot;&gt;Заполняет список датой выбранной в календаре&lt;/font&gt;" style="rounded=0;whiteSpace=wrap;html=1;" parent="1" vertex="1">
          <mxGeometry x="2630" y="480" width="180" height="80" as="geometry" />
        </mxCell>
        <mxCell id="wRYcbDbW16RMZCIpdBNf-105" value="&lt;font size=&quot;3&quot; face=&quot;Times New Roman&quot;&gt;Конец&amp;nbsp;&lt;/font&gt;&lt;div&gt;&lt;font size=&quot;3&quot; face=&quot;Times New Roman&quot;&gt;(WriteBtn_Click)&lt;/font&gt;&lt;/div&gt;" style="rounded=1;whiteSpace=wrap;html=1;" parent="1" vertex="1">
          <mxGeometry x="2630" y="625" width="180" height="90" as="geometry" />
        </mxCell>
        <mxCell id="wRYcbDbW16RMZCIpdBNf-107" style="edgeStyle=orthogonalEdgeStyle;rounded=0;orthogonalLoop=1;jettySize=auto;html=1;exitX=0.5;exitY=1;exitDx=0;exitDy=0;" parent="1" source="wRYcbDbW16RMZCIpdBNf-108" edge="1">
          <mxGeometry relative="1" as="geometry">
            <mxPoint x="2310" y="480" as="targetPoint" />
          </mxGeometry>
        </mxCell>
        <mxCell id="wRYcbDbW16RMZCIpdBNf-108" value="&lt;font size=&quot;3&quot; face=&quot;Times New Roman&quot;&gt;Начало&amp;nbsp;&lt;/font&gt;&lt;div&gt;&lt;font size=&quot;3&quot; face=&quot;Times New Roman&quot;&gt;(Создать титульник)&lt;/font&gt;&lt;/div&gt;" style="rounded=1;whiteSpace=wrap;html=1;" parent="1" vertex="1">
          <mxGeometry x="2220" y="330" width="180" height="90" as="geometry" />
        </mxCell>
        <mxCell id="N7RACuZjBRk8Ios8j_cp-59" style="edgeStyle=orthogonalEdgeStyle;rounded=0;orthogonalLoop=1;jettySize=auto;html=1;exitX=0.5;exitY=1;exitDx=0;exitDy=0;entryX=0.5;entryY=0;entryDx=0;entryDy=0;" parent="1" source="wRYcbDbW16RMZCIpdBNf-110" target="N7RACuZjBRk8Ios8j_cp-58" edge="1">
          <mxGeometry relative="1" as="geometry" />
        </mxCell>
        <mxCell id="wRYcbDbW16RMZCIpdBNf-110" value="&lt;font size=&quot;3&quot; face=&quot;Times New Roman&quot;&gt;Заполянем ComboBox&#39;ы и TextBox&#39;ы&lt;/font&gt;" style="rounded=0;whiteSpace=wrap;html=1;" parent="1" vertex="1">
          <mxGeometry x="2220" y="480" width="180" height="80" as="geometry" />
        </mxCell>
        <mxCell id="wRYcbDbW16RMZCIpdBNf-111" value="&lt;font size=&quot;3&quot; face=&quot;Times New Roman&quot;&gt;Конец&amp;nbsp;&lt;/font&gt;&lt;div&gt;&lt;span style=&quot;font-family: &amp;quot;Times New Roman&amp;quot;; font-size: medium;&quot;&gt;(WriteInFileBtn_Click)&lt;/span&gt;&lt;br&gt;&lt;/div&gt;" style="rounded=1;whiteSpace=wrap;html=1;" parent="1" vertex="1">
          <mxGeometry x="2220" y="760" width="180" height="90" as="geometry" />
        </mxCell>
        <mxCell id="wRYcbDbW16RMZCIpdBNf-117" style="edgeStyle=orthogonalEdgeStyle;rounded=0;orthogonalLoop=1;jettySize=auto;html=1;exitX=0.5;exitY=1;exitDx=0;exitDy=0;" parent="1" source="wRYcbDbW16RMZCIpdBNf-118" edge="1">
          <mxGeometry relative="1" as="geometry">
            <mxPoint x="2710" y="917.5" as="targetPoint" />
          </mxGeometry>
        </mxCell>
        <mxCell id="wRYcbDbW16RMZCIpdBNf-118" value="&lt;font size=&quot;3&quot; face=&quot;Times New Roman&quot;&gt;Начало&amp;nbsp;&lt;/font&gt;&lt;div&gt;&lt;font size=&quot;3&quot; face=&quot;Times New Roman&quot;&gt;(ResultBtn_Click)&lt;/font&gt;&lt;/div&gt;" style="rounded=1;whiteSpace=wrap;html=1;" parent="1" vertex="1">
          <mxGeometry x="2620" y="767.5" width="180" height="90" as="geometry" />
        </mxCell>
        <mxCell id="wRYcbDbW16RMZCIpdBNf-119" style="edgeStyle=orthogonalEdgeStyle;rounded=0;orthogonalLoop=1;jettySize=auto;html=1;exitX=0.5;exitY=1;exitDx=0;exitDy=0;entryX=0.5;entryY=0;entryDx=0;entryDy=0;" parent="1" source="wRYcbDbW16RMZCIpdBNf-120" target="wRYcbDbW16RMZCIpdBNf-121" edge="1">
          <mxGeometry relative="1" as="geometry" />
        </mxCell>
        <mxCell id="wRYcbDbW16RMZCIpdBNf-120" value="&lt;font size=&quot;3&quot; face=&quot;Times New Roman&quot;&gt;Высчитывает какой день недели был Y лет назад&lt;/font&gt;" style="rounded=0;whiteSpace=wrap;html=1;" parent="1" vertex="1">
          <mxGeometry x="2620" y="917.5" width="180" height="80" as="geometry" />
        </mxCell>
        <mxCell id="wRYcbDbW16RMZCIpdBNf-121" value="&lt;font size=&quot;3&quot; face=&quot;Times New Roman&quot;&gt;Конец&amp;nbsp;&lt;/font&gt;&lt;div&gt;&lt;span style=&quot;font-family: &amp;quot;Times New Roman&amp;quot;; font-size: medium;&quot;&gt;(ResultBtn_Click)&lt;/span&gt;&lt;br&gt;&lt;/div&gt;" style="rounded=1;whiteSpace=wrap;html=1;" parent="1" vertex="1">
          <mxGeometry x="2620" y="1062.5" width="180" height="90" as="geometry" />
        </mxCell>
        <mxCell id="wRYcbDbW16RMZCIpdBNf-122" style="edgeStyle=orthogonalEdgeStyle;rounded=0;orthogonalLoop=1;jettySize=auto;html=1;exitX=0.5;exitY=1;exitDx=0;exitDy=0;" parent="1" source="wRYcbDbW16RMZCIpdBNf-123" edge="1">
          <mxGeometry relative="1" as="geometry">
            <mxPoint x="3070" y="920" as="targetPoint" />
          </mxGeometry>
        </mxCell>
        <mxCell id="wRYcbDbW16RMZCIpdBNf-123" value="&lt;font size=&quot;3&quot; face=&quot;Times New Roman&quot;&gt;Начало&amp;nbsp;&lt;/font&gt;&lt;div&gt;&lt;font size=&quot;3&quot; face=&quot;Times New Roman&quot;&gt;(ClearBtn_Click)&lt;/font&gt;&lt;/div&gt;" style="rounded=1;whiteSpace=wrap;html=1;" parent="1" vertex="1">
          <mxGeometry x="2980" y="770" width="180" height="90" as="geometry" />
        </mxCell>
        <mxCell id="wRYcbDbW16RMZCIpdBNf-124" style="edgeStyle=orthogonalEdgeStyle;rounded=0;orthogonalLoop=1;jettySize=auto;html=1;exitX=0.5;exitY=1;exitDx=0;exitDy=0;entryX=0.5;entryY=0;entryDx=0;entryDy=0;" parent="1" source="wRYcbDbW16RMZCIpdBNf-125" target="wRYcbDbW16RMZCIpdBNf-126" edge="1">
          <mxGeometry relative="1" as="geometry" />
        </mxCell>
        <mxCell id="wRYcbDbW16RMZCIpdBNf-125" value="&lt;font size=&quot;3&quot; face=&quot;Times New Roman&quot;&gt;Очищает список дат&lt;/font&gt;" style="rounded=0;whiteSpace=wrap;html=1;" parent="1" vertex="1">
          <mxGeometry x="2980" y="920" width="180" height="80" as="geometry" />
        </mxCell>
        <mxCell id="wRYcbDbW16RMZCIpdBNf-126" value="&lt;font size=&quot;3&quot; face=&quot;Times New Roman&quot;&gt;Конец&amp;nbsp;&lt;/font&gt;&lt;div&gt;&lt;span style=&quot;font-family: &amp;quot;Times New Roman&amp;quot;; font-size: medium;&quot;&gt;(ClearBtn_Click)&lt;/span&gt;&lt;br&gt;&lt;/div&gt;" style="rounded=1;whiteSpace=wrap;html=1;" parent="1" vertex="1">
          <mxGeometry x="2980" y="1065" width="180" height="90" as="geometry" />
        </mxCell>
        <mxCell id="wRYcbDbW16RMZCIpdBNf-127" style="edgeStyle=orthogonalEdgeStyle;rounded=0;orthogonalLoop=1;jettySize=auto;html=1;exitX=0.5;exitY=1;exitDx=0;exitDy=0;" parent="1" source="wRYcbDbW16RMZCIpdBNf-128" edge="1">
          <mxGeometry relative="1" as="geometry">
            <mxPoint x="3070" y="477.5" as="targetPoint" />
          </mxGeometry>
        </mxCell>
        <mxCell id="wRYcbDbW16RMZCIpdBNf-128" value="&lt;font size=&quot;3&quot; face=&quot;Times New Roman&quot;&gt;Начало&amp;nbsp;&lt;/font&gt;&lt;div&gt;&lt;font size=&quot;3&quot; face=&quot;Times New Roman&quot;&gt;(SortBtn_Click)&lt;/font&gt;&lt;/div&gt;" style="rounded=1;whiteSpace=wrap;html=1;" parent="1" vertex="1">
          <mxGeometry x="2980" y="327.5" width="180" height="90" as="geometry" />
        </mxCell>
        <mxCell id="wRYcbDbW16RMZCIpdBNf-129" style="edgeStyle=orthogonalEdgeStyle;rounded=0;orthogonalLoop=1;jettySize=auto;html=1;exitX=0.5;exitY=1;exitDx=0;exitDy=0;entryX=0.5;entryY=0;entryDx=0;entryDy=0;" parent="1" source="wRYcbDbW16RMZCIpdBNf-130" target="wRYcbDbW16RMZCIpdBNf-131" edge="1">
          <mxGeometry relative="1" as="geometry" />
        </mxCell>
        <mxCell id="wRYcbDbW16RMZCIpdBNf-130" value="&lt;font size=&quot;3&quot; face=&quot;Times New Roman&quot;&gt;Сортирует список дат&lt;/font&gt;" style="rounded=0;whiteSpace=wrap;html=1;" parent="1" vertex="1">
          <mxGeometry x="2980" y="477.5" width="180" height="80" as="geometry" />
        </mxCell>
        <mxCell id="wRYcbDbW16RMZCIpdBNf-131" value="&lt;font size=&quot;3&quot; face=&quot;Times New Roman&quot;&gt;Конец&amp;nbsp;&lt;/font&gt;&lt;div&gt;&lt;span style=&quot;font-family: &amp;quot;Times New Roman&amp;quot;; font-size: medium;&quot;&gt;(SortBtn_Click)&lt;/span&gt;&lt;br&gt;&lt;/div&gt;" style="rounded=1;whiteSpace=wrap;html=1;" parent="1" vertex="1">
          <mxGeometry x="2980" y="622.5" width="180" height="90" as="geometry" />
        </mxCell>
        <mxCell id="wRYcbDbW16RMZCIpdBNf-132" style="edgeStyle=orthogonalEdgeStyle;rounded=0;orthogonalLoop=1;jettySize=auto;html=1;exitX=0.5;exitY=1;exitDx=0;exitDy=0;" parent="1" source="wRYcbDbW16RMZCIpdBNf-133" edge="1">
          <mxGeometry relative="1" as="geometry">
            <mxPoint x="3390" y="475" as="targetPoint" />
          </mxGeometry>
        </mxCell>
        <mxCell id="wRYcbDbW16RMZCIpdBNf-133" value="&lt;font size=&quot;3&quot; face=&quot;Times New Roman&quot;&gt;Начало&amp;nbsp;&lt;/font&gt;&lt;div&gt;&lt;font size=&quot;3&quot; face=&quot;Times New Roman&quot;&gt;(SkolkoLet_TB)&lt;/font&gt;&lt;/div&gt;" style="rounded=1;whiteSpace=wrap;html=1;" parent="1" vertex="1">
          <mxGeometry x="3300" y="325" width="180" height="90" as="geometry" />
        </mxCell>
        <mxCell id="wRYcbDbW16RMZCIpdBNf-134" style="edgeStyle=orthogonalEdgeStyle;rounded=0;orthogonalLoop=1;jettySize=auto;html=1;exitX=0.5;exitY=1;exitDx=0;exitDy=0;entryX=0.5;entryY=0;entryDx=0;entryDy=0;" parent="1" source="wRYcbDbW16RMZCIpdBNf-135" target="wRYcbDbW16RMZCIpdBNf-136" edge="1">
          <mxGeometry relative="1" as="geometry" />
        </mxCell>
        <mxCell id="wRYcbDbW16RMZCIpdBNf-135" value="&lt;font size=&quot;3&quot; face=&quot;Times New Roman&quot;&gt;Записываем на сколько лет назад&amp;nbsp;&lt;/font&gt;" style="rounded=0;whiteSpace=wrap;html=1;" parent="1" vertex="1">
          <mxGeometry x="3300" y="475" width="180" height="80" as="geometry" />
        </mxCell>
        <mxCell id="wRYcbDbW16RMZCIpdBNf-136" value="&lt;font size=&quot;3&quot; face=&quot;Times New Roman&quot;&gt;Конец&amp;nbsp;&lt;/font&gt;&lt;div&gt;&lt;span style=&quot;font-family: &amp;quot;Times New Roman&amp;quot;; font-size: medium;&quot;&gt;(SkolkoLet_TB)&lt;/span&gt;&lt;br&gt;&lt;/div&gt;" style="rounded=1;whiteSpace=wrap;html=1;" parent="1" vertex="1">
          <mxGeometry x="3300" y="620" width="180" height="90" as="geometry" />
        </mxCell>
        <mxCell id="wRYcbDbW16RMZCIpdBNf-137" style="edgeStyle=orthogonalEdgeStyle;rounded=0;orthogonalLoop=1;jettySize=auto;html=1;exitX=0.5;exitY=1;exitDx=0;exitDy=0;entryX=0.5;entryY=0;entryDx=0;entryDy=0;" parent="1" source="wRYcbDbW16RMZCIpdBNf-138" target="wRYcbDbW16RMZCIpdBNf-142" edge="1">
          <mxGeometry relative="1" as="geometry">
            <mxPoint x="3760" y="942.5" as="targetPoint" />
          </mxGeometry>
        </mxCell>
        <mxCell id="wRYcbDbW16RMZCIpdBNf-138" value="&lt;font size=&quot;3&quot; face=&quot;Times New Roman&quot;&gt;Начало&amp;nbsp;&lt;/font&gt;&lt;div&gt;&lt;font size=&quot;3&quot; face=&quot;Times New Roman&quot;&gt;(Справка элементов)&lt;/font&gt;&lt;/div&gt;" style="rounded=1;whiteSpace=wrap;html=1;" parent="1" vertex="1">
          <mxGeometry x="3670" y="770" width="180" height="90" as="geometry" />
        </mxCell>
        <mxCell id="wRYcbDbW16RMZCIpdBNf-141" value="&lt;font size=&quot;3&quot; face=&quot;Times New Roman&quot;&gt;Конец&amp;nbsp;&lt;/font&gt;&lt;div&gt;&lt;span style=&quot;font-family: &amp;quot;Times New Roman&amp;quot;; font-size: medium;&quot;&gt;(Справка элементов)&lt;/span&gt;&lt;br&gt;&lt;/div&gt;" style="rounded=1;whiteSpace=wrap;html=1;" parent="1" vertex="1">
          <mxGeometry x="3670" y="1169" width="180" height="90" as="geometry" />
        </mxCell>
        <mxCell id="wRYcbDbW16RMZCIpdBNf-144" style="edgeStyle=orthogonalEdgeStyle;rounded=0;orthogonalLoop=1;jettySize=auto;html=1;exitX=1;exitY=0.5;exitDx=0;exitDy=0;" parent="1" source="wRYcbDbW16RMZCIpdBNf-142" target="wRYcbDbW16RMZCIpdBNf-145" edge="1">
          <mxGeometry relative="1" as="geometry">
            <mxPoint x="3930" y="975.1428571428571" as="targetPoint" />
          </mxGeometry>
        </mxCell>
        <mxCell id="wRYcbDbW16RMZCIpdBNf-147" style="edgeStyle=orthogonalEdgeStyle;rounded=0;orthogonalLoop=1;jettySize=auto;html=1;exitX=0;exitY=0.5;exitDx=0;exitDy=0;entryX=0.5;entryY=0;entryDx=0;entryDy=0;" parent="1" source="wRYcbDbW16RMZCIpdBNf-142" target="wRYcbDbW16RMZCIpdBNf-146" edge="1">
          <mxGeometry relative="1" as="geometry" />
        </mxCell>
        <mxCell id="wRYcbDbW16RMZCIpdBNf-142" value="&lt;font face=&quot;Times New Roman&quot; style=&quot;font-size: 14px;&quot;&gt;Включена ли справка?&lt;/font&gt;" style="rhombus;whiteSpace=wrap;html=1;" parent="1" vertex="1">
          <mxGeometry x="3660" y="910" width="200" height="130" as="geometry" />
        </mxCell>
        <mxCell id="wRYcbDbW16RMZCIpdBNf-151" style="edgeStyle=orthogonalEdgeStyle;rounded=0;orthogonalLoop=1;jettySize=auto;html=1;exitX=0.5;exitY=1;exitDx=0;exitDy=0;entryX=0.75;entryY=0;entryDx=0;entryDy=0;" parent="1" source="wRYcbDbW16RMZCIpdBNf-145" target="wRYcbDbW16RMZCIpdBNf-141" edge="1">
          <mxGeometry relative="1" as="geometry" />
        </mxCell>
        <mxCell id="wRYcbDbW16RMZCIpdBNf-145" value="&lt;span style=&quot;font-family: &amp;quot;Times New Roman&amp;quot;; font-size: 14px;&quot;&gt;Ctrl+H закрываем справку&lt;/span&gt;" style="rounded=0;whiteSpace=wrap;html=1;" parent="1" vertex="1">
          <mxGeometry x="3860" y="1010.0028571428571" width="120" height="60" as="geometry" />
        </mxCell>
        <mxCell id="wRYcbDbW16RMZCIpdBNf-150" style="edgeStyle=orthogonalEdgeStyle;rounded=0;orthogonalLoop=1;jettySize=auto;html=1;exitX=0.5;exitY=1;exitDx=0;exitDy=0;entryX=0.25;entryY=0;entryDx=0;entryDy=0;" parent="1" source="wRYcbDbW16RMZCIpdBNf-146" target="wRYcbDbW16RMZCIpdBNf-141" edge="1">
          <mxGeometry relative="1" as="geometry" />
        </mxCell>
        <mxCell id="wRYcbDbW16RMZCIpdBNf-146" value="&lt;span style=&quot;font-family: &amp;quot;Times New Roman&amp;quot;; font-size: 14px;&quot;&gt;Ctrl+H открываем справку&lt;/span&gt;" style="rounded=0;whiteSpace=wrap;html=1;" parent="1" vertex="1">
          <mxGeometry x="3540" y="1010" width="120" height="60" as="geometry" />
        </mxCell>
        <mxCell id="wRYcbDbW16RMZCIpdBNf-148" value="&lt;font style=&quot;font-size: 14px;&quot; face=&quot;Times New Roman&quot;&gt;Да&lt;/font&gt;" style="text;html=1;align=center;verticalAlign=middle;resizable=0;points=[];autosize=1;strokeColor=none;fillColor=none;" parent="1" vertex="1">
          <mxGeometry x="3880" y="945" width="40" height="30" as="geometry" />
        </mxCell>
        <mxCell id="wRYcbDbW16RMZCIpdBNf-149" value="&lt;font style=&quot;font-size: 14px;&quot; face=&quot;Times New Roman&quot;&gt;Нет&lt;/font&gt;" style="text;html=1;align=center;verticalAlign=middle;resizable=0;points=[];autosize=1;strokeColor=none;fillColor=none;" parent="1" vertex="1">
          <mxGeometry x="3600" y="945" width="50" height="30" as="geometry" />
        </mxCell>
        <mxCell id="N7RACuZjBRk8Ios8j_cp-9" style="edgeStyle=orthogonalEdgeStyle;rounded=0;orthogonalLoop=1;jettySize=auto;html=1;exitX=1;exitY=1;exitDx=0;exitDy=0;" parent="1" source="N7RACuZjBRk8Ios8j_cp-1" edge="1">
          <mxGeometry relative="1" as="geometry">
            <mxPoint x="120.63157894736834" y="600" as="targetPoint" />
          </mxGeometry>
        </mxCell>
        <mxCell id="N7RACuZjBRk8Ios8j_cp-1" value="&lt;font face=&quot;Times New Roman&quot;&gt;&lt;span style=&quot;font-size: 14px;&quot;&gt;Очистить титульник&lt;/span&gt;&lt;/font&gt;" style="ellipse;whiteSpace=wrap;html=1;aspect=fixed;" parent="1" vertex="1">
          <mxGeometry x="9.999999999999886" y="440" width="130" height="130" as="geometry" />
        </mxCell>
        <mxCell id="N7RACuZjBRk8Ios8j_cp-5" value="" style="endArrow=none;html=1;rounded=0;strokeWidth=4;" parent="1" edge="1">
          <mxGeometry width="50" height="50" relative="1" as="geometry">
            <mxPoint x="620" y="600" as="sourcePoint" />
            <mxPoint x="730" y="600" as="targetPoint" />
            <Array as="points" />
          </mxGeometry>
        </mxCell>
        <mxCell id="N7RACuZjBRk8Ios8j_cp-6" value="" style="endArrow=none;html=1;rounded=0;strokeWidth=4;" parent="1" edge="1">
          <mxGeometry width="50" height="50" relative="1" as="geometry">
            <mxPoint x="442.5" y="600" as="sourcePoint" />
            <mxPoint x="552.5" y="600" as="targetPoint" />
            <Array as="points" />
          </mxGeometry>
        </mxCell>
        <mxCell id="N7RACuZjBRk8Ios8j_cp-7" value="" style="endArrow=none;html=1;rounded=0;strokeWidth=4;" parent="1" edge="1">
          <mxGeometry width="50" height="50" relative="1" as="geometry">
            <mxPoint x="99.99999999999996" y="600" as="sourcePoint" />
            <mxPoint x="209.99999999999994" y="600" as="targetPoint" />
            <Array as="points" />
          </mxGeometry>
        </mxCell>
        <mxCell id="N7RACuZjBRk8Ios8j_cp-14" style="edgeStyle=orthogonalEdgeStyle;rounded=0;orthogonalLoop=1;jettySize=auto;html=1;exitX=1;exitY=1;exitDx=0;exitDy=0;entryX=0.5;entryY=0;entryDx=0;entryDy=0;" parent="1" target="N7RACuZjBRk8Ios8j_cp-15" edge="1">
          <mxGeometry relative="1" as="geometry">
            <mxPoint x="150.00157894736833" y="649" as="targetPoint" />
            <mxPoint x="150.37" y="600" as="sourcePoint" />
          </mxGeometry>
        </mxCell>
        <mxCell id="-ajIfBetpJocQsXQamJK-3" style="edgeStyle=orthogonalEdgeStyle;rounded=0;orthogonalLoop=1;jettySize=auto;html=1;exitX=0.5;exitY=1;exitDx=0;exitDy=0;entryX=0;entryY=0;entryDx=0;entryDy=0;" edge="1" parent="1" source="N7RACuZjBRk8Ios8j_cp-15" target="eu__VUVs-O8cIbxZYUX1-60">
          <mxGeometry relative="1" as="geometry">
            <Array as="points">
              <mxPoint y="780" />
              <mxPoint y="410" />
              <mxPoint x="538" y="410" />
            </Array>
          </mxGeometry>
        </mxCell>
        <mxCell id="N7RACuZjBRk8Ios8j_cp-15" value="&lt;font face=&quot;Times New Roman&quot;&gt;&lt;span style=&quot;font-size: 14px;&quot;&gt;Титульник очищен&lt;/span&gt;&lt;/font&gt;" style="ellipse;whiteSpace=wrap;html=1;aspect=fixed;" parent="1" vertex="1">
          <mxGeometry x="86.24999999999984" y="650" width="130" height="130" as="geometry" />
        </mxCell>
        <mxCell id="N7RACuZjBRk8Ios8j_cp-26" style="edgeStyle=orthogonalEdgeStyle;rounded=0;orthogonalLoop=1;jettySize=auto;html=1;exitX=0.5;exitY=1;exitDx=0;exitDy=0;entryX=0.5;entryY=0;entryDx=0;entryDy=0;" parent="1" source="N7RACuZjBRk8Ios8j_cp-18" target="N7RACuZjBRk8Ios8j_cp-25" edge="1">
          <mxGeometry relative="1" as="geometry" />
        </mxCell>
        <mxCell id="N7RACuZjBRk8Ios8j_cp-18" value="&lt;font face=&quot;Times New Roman&quot;&gt;&lt;span style=&quot;font-size: 14px;&quot;&gt;Титульник создан&lt;/span&gt;&lt;/font&gt;" style="ellipse;whiteSpace=wrap;html=1;aspect=fixed;" parent="1" vertex="1">
          <mxGeometry x="429.65999999999985" y="700" width="130" height="130" as="geometry" />
        </mxCell>
        <mxCell id="N7RACuZjBRk8Ios8j_cp-19" style="edgeStyle=orthogonalEdgeStyle;rounded=0;orthogonalLoop=1;jettySize=auto;html=1;exitX=1;exitY=1;exitDx=0;exitDy=0;entryX=0.5;entryY=0;entryDx=0;entryDy=0;" parent="1" target="N7RACuZjBRk8Ios8j_cp-18" edge="1">
          <mxGeometry relative="1" as="geometry">
            <mxPoint x="494.73" y="650" as="targetPoint" />
            <mxPoint x="494.1" y="600" as="sourcePoint" />
          </mxGeometry>
        </mxCell>
        <mxCell id="N7RACuZjBRk8Ios8j_cp-44" style="edgeStyle=orthogonalEdgeStyle;rounded=0;orthogonalLoop=1;jettySize=auto;html=1;exitX=1;exitY=1;exitDx=0;exitDy=0;" parent="1" source="N7RACuZjBRk8Ios8j_cp-21" edge="1">
          <mxGeometry relative="1" as="geometry">
            <mxPoint x="721" y="790" as="targetPoint" />
          </mxGeometry>
        </mxCell>
        <mxCell id="N7RACuZjBRk8Ios8j_cp-52" style="edgeStyle=orthogonalEdgeStyle;rounded=0;orthogonalLoop=1;jettySize=auto;html=1;exitX=1;exitY=0;exitDx=0;exitDy=0;" parent="1" source="N7RACuZjBRk8Ios8j_cp-21" edge="1">
          <mxGeometry relative="1" as="geometry">
            <mxPoint x="920" y="790" as="targetPoint" />
            <Array as="points">
              <mxPoint x="721" y="630" />
              <mxPoint x="921" y="630" />
              <mxPoint x="921" y="790" />
            </Array>
          </mxGeometry>
        </mxCell>
        <mxCell id="-ajIfBetpJocQsXQamJK-10" style="edgeStyle=orthogonalEdgeStyle;rounded=0;orthogonalLoop=1;jettySize=auto;html=1;exitX=0.5;exitY=1;exitDx=0;exitDy=0;" edge="1" parent="1" source="N7RACuZjBRk8Ios8j_cp-21">
          <mxGeometry relative="1" as="geometry">
            <mxPoint x="1070" y="790.0000000000002" as="targetPoint" />
            <Array as="points">
              <mxPoint x="1071" y="770" />
              <mxPoint x="1071" y="790" />
            </Array>
          </mxGeometry>
        </mxCell>
        <mxCell id="N7RACuZjBRk8Ios8j_cp-21" value="&lt;font face=&quot;Times New Roman&quot;&gt;&lt;span style=&quot;font-size: 14px;&quot;&gt;Окно договора открыто&lt;/span&gt;&lt;/font&gt;" style="ellipse;whiteSpace=wrap;html=1;aspect=fixed;" parent="1" vertex="1">
          <mxGeometry x="609.9999999999999" y="640" width="130" height="130" as="geometry" />
        </mxCell>
        <mxCell id="N7RACuZjBRk8Ios8j_cp-23" style="edgeStyle=orthogonalEdgeStyle;rounded=0;orthogonalLoop=1;jettySize=auto;html=1;exitX=1;exitY=1;exitDx=0;exitDy=0;entryX=0.5;entryY=0;entryDx=0;entryDy=0;" parent="1" target="N7RACuZjBRk8Ios8j_cp-21" edge="1">
          <mxGeometry relative="1" as="geometry">
            <mxPoint x="675.21" y="650" as="targetPoint" />
            <mxPoint x="674.3100000000001" y="600" as="sourcePoint" />
          </mxGeometry>
        </mxCell>
        <mxCell id="N7RACuZjBRk8Ios8j_cp-25" value="&lt;font face=&quot;Times New Roman&quot;&gt;&lt;font style=&quot;font-size: 14px;&quot;&gt;&lt;br&gt;Сток&lt;br&gt;(Конец&lt;br&gt;рассмотрения &lt;br&gt;процесса)&lt;/font&gt;&lt;br&gt;&lt;/font&gt;" style="ellipse;whiteSpace=wrap;html=1;aspect=fixed;" parent="1" vertex="1">
          <mxGeometry x="429.65999999999997" y="892.5" width="130" height="130" as="geometry" />
        </mxCell>
        <mxCell id="N7RACuZjBRk8Ios8j_cp-33" style="edgeStyle=orthogonalEdgeStyle;rounded=0;orthogonalLoop=1;jettySize=auto;html=1;exitX=1;exitY=0.5;exitDx=0;exitDy=0;" parent="1" source="N7RACuZjBRk8Ios8j_cp-29" edge="1">
          <mxGeometry relative="1" as="geometry">
            <mxPoint x="500" y="600" as="targetPoint" />
          </mxGeometry>
        </mxCell>
        <mxCell id="N7RACuZjBRk8Ios8j_cp-29" value="&lt;font face=&quot;Times New Roman&quot;&gt;&lt;span style=&quot;font-size: 14px;&quot;&gt;Выбор цвета заполняемых элементов&lt;/span&gt;&lt;/font&gt;" style="ellipse;whiteSpace=wrap;html=1;aspect=fixed;" parent="1" vertex="1">
          <mxGeometry x="348.9999999999999" y="440" width="130" height="130" as="geometry" />
        </mxCell>
        <mxCell id="N7RACuZjBRk8Ios8j_cp-36" value="" style="triangle;whiteSpace=wrap;html=1;direction=north;strokeColor=default;gradientColor=none;fillColor=#000000;" parent="1" vertex="1">
          <mxGeometry x="480" y="900" width="29.33" height="20" as="geometry" />
        </mxCell>
        <mxCell id="N7RACuZjBRk8Ios8j_cp-45" style="edgeStyle=orthogonalEdgeStyle;rounded=0;orthogonalLoop=1;jettySize=auto;html=1;exitX=0;exitY=1;exitDx=0;exitDy=0;" parent="1" source="N7RACuZjBRk8Ios8j_cp-38" edge="1">
          <mxGeometry relative="1" as="geometry">
            <mxPoint x="793" y="790" as="targetPoint" />
          </mxGeometry>
        </mxCell>
        <mxCell id="N7RACuZjBRk8Ios8j_cp-38" value="&lt;font face=&quot;Times New Roman&quot;&gt;&lt;span style=&quot;font-size: 14px;&quot;&gt;Создать договор&lt;/span&gt;&lt;/font&gt;" style="ellipse;whiteSpace=wrap;html=1;aspect=fixed;" parent="1" vertex="1">
          <mxGeometry x="773.7699999999999" y="637.5" width="130" height="130" as="geometry" />
        </mxCell>
        <mxCell id="N7RACuZjBRk8Ios8j_cp-53" style="edgeStyle=orthogonalEdgeStyle;rounded=0;orthogonalLoop=1;jettySize=auto;html=1;exitX=0;exitY=1;exitDx=0;exitDy=0;" parent="1" source="N7RACuZjBRk8Ios8j_cp-40" edge="1">
          <mxGeometry relative="1" as="geometry">
            <mxPoint x="959" y="790" as="targetPoint" />
          </mxGeometry>
        </mxCell>
        <mxCell id="N7RACuZjBRk8Ios8j_cp-40" value="&lt;font face=&quot;Times New Roman&quot;&gt;&lt;span style=&quot;font-size: 14px;&quot;&gt;Очистить договор&lt;/span&gt;&lt;/font&gt;" style="ellipse;whiteSpace=wrap;html=1;aspect=fixed;" parent="1" vertex="1">
          <mxGeometry x="939.9999999999999" y="637.5" width="130" height="130" as="geometry" />
        </mxCell>
        <mxCell id="N7RACuZjBRk8Ios8j_cp-42" value="" style="endArrow=none;html=1;rounded=0;strokeWidth=4;" parent="1" edge="1">
          <mxGeometry width="50" height="50" relative="1" as="geometry">
            <mxPoint x="702.5" y="790" as="sourcePoint" />
            <mxPoint x="812.5" y="790" as="targetPoint" />
            <Array as="points" />
          </mxGeometry>
        </mxCell>
        <mxCell id="N7RACuZjBRk8Ios8j_cp-43" value="" style="endArrow=none;html=1;rounded=0;strokeWidth=4;" parent="1" edge="1">
          <mxGeometry width="50" height="50" relative="1" as="geometry">
            <mxPoint x="884.27" y="790" as="sourcePoint" />
            <mxPoint x="994.27" y="790" as="targetPoint" />
            <Array as="points" />
          </mxGeometry>
        </mxCell>
        <mxCell id="N7RACuZjBRk8Ios8j_cp-46" style="edgeStyle=orthogonalEdgeStyle;rounded=0;orthogonalLoop=1;jettySize=auto;html=1;exitX=1;exitY=1;exitDx=0;exitDy=0;entryX=0.5;entryY=0;entryDx=0;entryDy=0;" parent="1" target="N7RACuZjBRk8Ios8j_cp-47" edge="1">
          <mxGeometry relative="1" as="geometry">
            <mxPoint x="751.27" y="830" as="targetPoint" />
            <mxPoint x="751.27" y="791" as="sourcePoint" />
          </mxGeometry>
        </mxCell>
        <mxCell id="N7RACuZjBRk8Ios8j_cp-51" style="edgeStyle=orthogonalEdgeStyle;rounded=0;orthogonalLoop=1;jettySize=auto;html=1;exitX=0;exitY=0.5;exitDx=0;exitDy=0;entryX=1;entryY=0.5;entryDx=0;entryDy=0;" parent="1" source="N7RACuZjBRk8Ios8j_cp-47" target="N7RACuZjBRk8Ios8j_cp-25" edge="1">
          <mxGeometry relative="1" as="geometry" />
        </mxCell>
        <mxCell id="N7RACuZjBRk8Ios8j_cp-47" value="&lt;font face=&quot;Times New Roman&quot;&gt;&lt;span style=&quot;font-size: 14px;&quot;&gt;Договор создан&lt;/span&gt;&lt;/font&gt;" style="ellipse;whiteSpace=wrap;html=1;aspect=fixed;" parent="1" vertex="1">
          <mxGeometry x="689.9999999999999" y="830" width="130" height="130" as="geometry" />
        </mxCell>
        <mxCell id="N7RACuZjBRk8Ios8j_cp-54" value="&lt;font face=&quot;Times New Roman&quot;&gt;&lt;span style=&quot;font-size: 14px;&quot;&gt;Договор очищен&lt;/span&gt;&lt;/font&gt;" style="ellipse;whiteSpace=wrap;html=1;aspect=fixed;" parent="1" vertex="1">
          <mxGeometry x="879.9999999999999" y="830" width="130" height="130" as="geometry" />
        </mxCell>
        <mxCell id="N7RACuZjBRk8Ios8j_cp-55" style="edgeStyle=orthogonalEdgeStyle;rounded=0;orthogonalLoop=1;jettySize=auto;html=1;exitX=1;exitY=1;exitDx=0;exitDy=0;entryX=0.5;entryY=0;entryDx=0;entryDy=0;" parent="1" target="N7RACuZjBRk8Ios8j_cp-54" edge="1">
          <mxGeometry relative="1" as="geometry">
            <mxPoint x="943.73" y="830" as="targetPoint" />
            <mxPoint x="940" y="791" as="sourcePoint" />
          </mxGeometry>
        </mxCell>
        <mxCell id="N7RACuZjBRk8Ios8j_cp-57" style="edgeStyle=orthogonalEdgeStyle;rounded=0;orthogonalLoop=1;jettySize=auto;html=1;exitX=0.5;exitY=1;exitDx=0;exitDy=0;entryX=0.737;entryY=0.033;entryDx=0;entryDy=0;entryPerimeter=0;" parent="1" source="N7RACuZjBRk8Ios8j_cp-54" target="N7RACuZjBRk8Ios8j_cp-21" edge="1">
          <mxGeometry relative="1" as="geometry">
            <Array as="points">
              <mxPoint x="945" y="1020" />
              <mxPoint x="1290" y="1020" />
              <mxPoint x="1290" y="610" />
              <mxPoint x="706" y="610" />
            </Array>
          </mxGeometry>
        </mxCell>
        <mxCell id="N7RACuZjBRk8Ios8j_cp-60" style="edgeStyle=orthogonalEdgeStyle;rounded=0;orthogonalLoop=1;jettySize=auto;html=1;exitX=0.5;exitY=1;exitDx=0;exitDy=0;entryX=0.5;entryY=0;entryDx=0;entryDy=0;" parent="1" source="N7RACuZjBRk8Ios8j_cp-58" target="wRYcbDbW16RMZCIpdBNf-111" edge="1">
          <mxGeometry relative="1" as="geometry" />
        </mxCell>
        <mxCell id="N7RACuZjBRk8Ios8j_cp-58" value="&lt;font size=&quot;3&quot; face=&quot;Times New Roman&quot;&gt;Нажимаем кнопку &quot;Создать титульник&quot;&lt;/font&gt;" style="rounded=0;whiteSpace=wrap;html=1;" parent="1" vertex="1">
          <mxGeometry x="2220" y="618.75" width="180" height="80" as="geometry" />
        </mxCell>
        <mxCell id="-ajIfBetpJocQsXQamJK-2" value="" style="rounded=0;whiteSpace=wrap;html=1;fillColor=#000000;" vertex="1" parent="1">
          <mxGeometry x="140" y="658.75" width="22.5" height="22.5" as="geometry" />
        </mxCell>
        <mxCell id="-ajIfBetpJocQsXQamJK-4" value="" style="rounded=0;whiteSpace=wrap;html=1;fillColor=#000000;" vertex="1" parent="1">
          <mxGeometry x="663.75" y="650" width="22.5" height="22.5" as="geometry" />
        </mxCell>
        <mxCell id="-ajIfBetpJocQsXQamJK-5" value="" style="rounded=0;whiteSpace=wrap;html=1;fillColor=#000000;" vertex="1" parent="1">
          <mxGeometry x="483.40999999999997" y="710" width="22.5" height="22.5" as="geometry" />
        </mxCell>
        <mxCell id="-ajIfBetpJocQsXQamJK-6" value="" style="rounded=0;whiteSpace=wrap;html=1;fillColor=#000000;" vertex="1" parent="1">
          <mxGeometry x="743.75" y="843.75" width="22.5" height="22.5" as="geometry" />
        </mxCell>
        <mxCell id="-ajIfBetpJocQsXQamJK-7" value="" style="rounded=0;whiteSpace=wrap;html=1;fillColor=#000000;" vertex="1" parent="1">
          <mxGeometry x="933.75" y="843.75" width="22.5" height="22.5" as="geometry" />
        </mxCell>
        <mxCell id="-ajIfBetpJocQsXQamJK-11" style="edgeStyle=orthogonalEdgeStyle;rounded=0;orthogonalLoop=1;jettySize=auto;html=1;exitX=0;exitY=1;exitDx=0;exitDy=0;" edge="1" parent="1" source="-ajIfBetpJocQsXQamJK-8">
          <mxGeometry relative="1" as="geometry">
            <mxPoint x="1119.3157894736842" y="790" as="targetPoint" />
          </mxGeometry>
        </mxCell>
        <mxCell id="-ajIfBetpJocQsXQamJK-8" value="&lt;font face=&quot;Times New Roman&quot;&gt;&lt;span style=&quot;font-size: 14px;&quot;&gt;Вернуться к титульнику&lt;/span&gt;&lt;/font&gt;" style="ellipse;whiteSpace=wrap;html=1;aspect=fixed;" vertex="1" parent="1">
          <mxGeometry x="1100" y="637.5" width="130" height="130" as="geometry" />
        </mxCell>
        <mxCell id="-ajIfBetpJocQsXQamJK-9" value="" style="endArrow=none;html=1;rounded=0;strokeWidth=4;" edge="1" parent="1">
          <mxGeometry width="50" height="50" relative="1" as="geometry">
            <mxPoint x="1030" y="790" as="sourcePoint" />
            <mxPoint x="1140" y="790" as="targetPoint" />
            <Array as="points" />
          </mxGeometry>
        </mxCell>
        <mxCell id="-ajIfBetpJocQsXQamJK-15" style="edgeStyle=orthogonalEdgeStyle;rounded=0;orthogonalLoop=1;jettySize=auto;html=1;exitX=0.5;exitY=1;exitDx=0;exitDy=0;entryX=1;entryY=0;entryDx=0;entryDy=0;" edge="1" parent="1" source="-ajIfBetpJocQsXQamJK-12" target="eu__VUVs-O8cIbxZYUX1-60">
          <mxGeometry relative="1" as="geometry">
            <Array as="points">
              <mxPoint x="1095" y="990" />
              <mxPoint x="1350" y="990" />
              <mxPoint x="1350" y="420" />
              <mxPoint x="630" y="420" />
            </Array>
          </mxGeometry>
        </mxCell>
        <mxCell id="-ajIfBetpJocQsXQamJK-12" value="&lt;font face=&quot;Times New Roman&quot;&gt;&lt;span style=&quot;font-size: 14px;&quot;&gt;Окно титульника отрыто&lt;/span&gt;&lt;/font&gt;" style="ellipse;whiteSpace=wrap;html=1;aspect=fixed;" vertex="1" parent="1">
          <mxGeometry x="1030" y="830" width="130" height="130" as="geometry" />
        </mxCell>
        <mxCell id="-ajIfBetpJocQsXQamJK-13" style="edgeStyle=orthogonalEdgeStyle;rounded=0;orthogonalLoop=1;jettySize=auto;html=1;exitX=1;exitY=1;exitDx=0;exitDy=0;entryX=0.5;entryY=0;entryDx=0;entryDy=0;" edge="1" parent="1">
          <mxGeometry relative="1" as="geometry">
            <mxPoint x="1095" y="830" as="targetPoint" />
            <mxPoint x="1090" y="791" as="sourcePoint" />
          </mxGeometry>
        </mxCell>
        <mxCell id="-ajIfBetpJocQsXQamJK-14" value="" style="rounded=0;whiteSpace=wrap;html=1;fillColor=#000000;" vertex="1" parent="1">
          <mxGeometry x="1083.75" y="843.75" width="22.5" height="22.5" as="geometry" />
        </mxCell>
      </root>
    </mxGraphModel>
  </diagram>
</mxfile>
